<?xml version="1.0" standalone="no"?>
<svg viewBox="0 0 200 200" xmlns="http://www.w3.org/2000/svg">
  <path fill="#D0E2FF" d="M34.7,-65C44.3,-54.7,50.8,-43.9,53.1,-33C55.4,-22,53.4,-11,54.7,0.7C56,12.5,60.4,25,59.2,37.6C57.9,50.3,50.8,63.1,40,66.1C29.2,69.2,14.6,62.5,3.1,57.1C-8.4,51.7,-16.8,47.7,-27.6,44.6C-38.4,41.5,-51.6,39.5,-57.9,32.2C-64.3,24.9,-63.9,12.5,-67.5,-2.1C-71.1,-16.6,-78.6,-33.1,-73.1,-42.1C-67.7,-51,-49.4,-52.4,-35,-59.9C-20.7,-67.5,-10.3,-81.3,1.1,-83.2C12.6,-85.2,25.2,-75.3,34.7,-65Z" transform="translate(100 100)" />
</svg>
